# xmcd
#
# Track frame offsets:
#	150
#	31172
#	50880
#	66263
#	107765
#	132613
#	148454
#	198508
#	217295
#
# Disc length: 3024 seconds
#
# Revision: 2
# Processed by: cddbd v1.5.2PL0 Copyright (c) Steve Scherf et al.
# Submitted via: audiograbber 1.83.01
#
DISCID=9e0bce09
DTITLE=Mike Bloomfield and Al Kooper and Steve Stills - Super Session [remastered b
DTITLE=y Audio Fidelity] [SACD]
DYEAR=1968
DGENRE=Rock
TTITLE0=Albert's Shuffle
TTITLE1=Stop
TTITLE2=Man's Temptation
TTITLE3=His Holy Modal Majesty
TTITLE4=Really
TTITLE5=It Takes A Lot To Laugh, It Takes A Train To Cry
TTITLE6=Season Of The Witch
TTITLE7=You Don't Love Me
TTITLE8=Harvey's Tune
EXTD=
EXTT0=
EXTT1=
EXTT2=
EXTT3=
EXTT4=
EXTT5=
EXTT6=
EXTT7=
EXTT8=
PLAYORDER=
